# xmcd
#
# Track frame offsets:
# 183
# 20730
# 39000
# 67188
# 85920
# 103755
# 125465
# 144258
# 163890
# 176893
#
# Disc length: 2741 seconds
#
#
# Revision: 0
# Processed by: cddbd v1.5.1PL2 Copyright (c) Steve Scherf et al.
# Submitted via: FreeRIP 2.944 
#
DISCID=890ab30a
DTITLE=V. Neckáø and Bacily - Planetarium 1
DYEAR=1976
DGENRE=Pop
TTITLE0=Planetarium - Vchod
TTITLE1=Svetova vystava
TTITLE2=Diamantova zena
TTITLE3=Stale stastne udoli
TTITLE4=Potulny hrac
TTITLE5=To se stava
TTITLE6=Meteor
TTITLE7=Pet svetelnych let
TTITLE8=Jako kouzlem
TTITLE9=Planetarium
EXTD=record 1976, remaster 1993
EXTT0=
EXTT1=
EXTT2=
EXTT3=
EXTT4=
EXTT5=
EXTT6=
EXTT7=
EXTT8=
EXTT9=
PLAYORDER=
